<svg width="auto" height="48" xmlns="http://www.w3.org/2000/svg" xmlns:xlink="http://www.w3.org/1999/xlink" overflow="hidden">
    <defs>
        <clipPath id="clip0">
            <rect x="110" y="1855" width="162" height="147"/>
        </clipPath>
    </defs>
    <g clip-path="url(#clip0)" transform="translate(-110 -1855)">
        <path d="M110.938 1952.97C110.938 1926.47 146.978 1904.97 191.438 1904.97 235.898 1904.97 271.938 1926.47 271.938 1952.97 239.751 1926.47 177.62 1920.53 133.16 1939.72 124.621 1943.41 117.121 1947.88 110.938 1952.97Z" fill="#F2F2F2" fill-rule="evenodd"/>
        <path d="M110.938 2001.97C110.938 1974.91 146.978 1952.97 191.438 1952.97 235.898 1952.97 271.938 1974.91 271.938 2001.97 239.751 1974.91 177.62 1968.85 133.16 1988.45 124.621 1992.21 117.121 1996.78 110.938 2001.97Z" fill="#F2F2F2" fill-rule="evenodd"/>
        <path d="M110.938 1904.97C110.938 1877.91 146.978 1855.97 191.438 1855.97 235.898 1855.97 271.938 1877.91 271.938 1904.97 239.751 1877.91 177.62 1871.85 133.16 1891.45 124.621 1895.21 117.121 1899.78 110.938 1904.97Z" fill="#F2F2F2" fill-rule="evenodd"/>
    </g>
</svg>
