<svg width="48" height="48" xmlns="http://www.w3.org/2000/svg" xmlns:xlink="http://www.w3.org/1999/xlink" overflow="hidden">

    <defs>
        <clipPath id="clip0"><rect x="1615" y="688" width="48" height="48"/></clipPath>
    </defs>

    <g clip-path="url(#clip0)" transform="translate(-1615 -688)">
        <rect x="1615" y="688" width="1170" height="1169" fill="#ffffff00"/>
            <path d="M1843 1380C1843 1260.71 2002.83 1164 2200 1164 2397.17 1164 2557 1260.71 2557 1380 2414.26 1260.71 2138.72 1234.01 1941.55 1320.37 1903.68 1336.96 1870.42 1357.09 1843 1380Z" fill="#f2f2f2" fill-rule="evenodd"/>
            <path d="M1843 1597C1843 1477.15 2002.83 1380 2200 1380 2397.17 1380 2557 1477.15 2557 1597 2414.26 1477.15 2138.72 1450.33 1941.55 1537.1 1903.68 1553.76 1870.42 1573.98 1843 1597Z" fill="#f2f2f2" fill-rule="evenodd"/>
            <path d="M1843 1164C1843 1044.15 2002.83 947 2200 947 2397.17 947 2557 1044.15 2557 1164 2414.26 1044.15 2138.72 1017.33 1941.55 1104.1 1903.68 1120.76 1870.42 1140.98 1843 1164Z" fill="#f2f2f2" fill-rule="evenodd"/>
        </g>
</svg>